<svg xmlns="http://www.w3.org/2000/svg" viewBox="0 0 64 64" role="img" aria-label="JJ Entertainment Solutions logo mark">
  <circle cx="32" cy="32" r="30" fill="#f4f1ec"/>
  <circle cx="32" cy="32" r="29" fill="none" stroke="#8f8878" stroke-width="2"/>
  <path d="M19 31c3.5-8 10-11 17-8 6 2.5 8 8 6 14-1.8 5.6-7.2 8.3-13 6.8-6-1.5-9.6-6.8-10-12.8Z" fill="none" stroke="#c9c2b6" stroke-width="2" opacity=".82"/>
  <path d="M13 36c5-5 11-6 18-3M31 33c5-5 11-6 18-3M25 49c.5-8 3.5-13 10-17M44 47c-6-2-10-6-12-13" fill="none" stroke="#c9c2b6" stroke-width="2" stroke-linecap="round" opacity=".72"/>
  <text x="32" y="43" text-anchor="middle" font-family="Georgia, 'Times New Roman', serif" font-size="35" font-weight="700" fill="#46360c">JJ</text>
</svg>
